<!-- Created with Inkscape (http://www.inkscape.org/) -->
<svg xmlns:dc="http://purl.org/dc/elements/1.1/" xmlns:cc="http://creativecommons.org/ns#" xmlns:rdf="http://www.w3.org/1999/02/22-rdf-syntax-ns#" xmlns:svg="http://www.w3.org/2000/svg" xmlns="http://www.w3.org/2000/svg" xmlns:sodipodi="http://sodipodi.sourceforge.net/DTD/sodipodi-0.dtd" xmlns:inkscape="http://www.inkscape.org/namespaces/inkscape" width="48px" height="48px" id="svg2987" version="1.1" inkscape:version="0.48.3.1 r9886" sodipodi:docname="application-exit.svg" inkscape:export-xdpi="90" inkscape:export-ydpi="90">
  <defs id="defs2989"/>
  <sodipodi:namedview id="base" pagecolor="#ffffff" bordercolor="#666666" borderopacity="1.0" inkscape:pageopacity="0.0" inkscape:pageshadow="2" inkscape:zoom="14" inkscape:cx="28.368221" inkscape:cy="17.699209" inkscape:current-layer="layer1" showgrid="true" inkscape:grid-bbox="true" inkscape:document-units="px" inkscape:window-width="1920" inkscape:window-height="1022" inkscape:window-x="0" inkscape:window-y="26" inkscape:window-maximized="1">
    <inkscape:grid type="xygrid" id="grid2995" empspacing="6" visible="true" enabled="true" snapvisiblegridlinesonly="true"/>
  </sodipodi:namedview>
  <metadata id="metadata2992">
    <rdf:RDF>
      <cc:Work rdf:about="">
        <dc:format>image/svg+xml</dc:format>
        <dc:type rdf:resource="http://purl.org/dc/dcmitype/StillImage"/>
        <dc:title/>
      </cc:Work>
    </rdf:RDF>
  </metadata>
  <g id="layer1" inkscape:label="Layer 1" inkscape:groupmode="layer">
    <path style="fill:#8b0f0f;fill-opacity:1;stroke:none" d="M 9 3 C 5.676 3 3 5.676 3 9 L 3 39 C 3 42.324 5.676 45 9 45 L 39 45 C 42.324 45 45 42.324 45 39 L 45 9 C 45 5.676 42.324 3 39 3 L 9 3 z M 14.84375 9.15625 L 24 18.3125 L 33.15625 9.15625 L 38.84375 14.84375 L 29.6875 24 L 38.84375 33.15625 L 33.15625 38.84375 L 24 29.6875 L 14.84375 38.84375 L 9.15625 33.15625 L 18.3125 24 L 9.15625 14.84375 L 14.84375 9.15625 z " id="rect3752"/>
  </g>
</svg>
