<!-- Created with Inkscape (http://www.inkscape.org/) -->
<svg xmlns:dc="http://purl.org/dc/elements/1.1/" xmlns:cc="http://creativecommons.org/ns#" xmlns:rdf="http://www.w3.org/1999/02/22-rdf-syntax-ns#" xmlns:svg="http://www.w3.org/2000/svg" xmlns="http://www.w3.org/2000/svg" xmlns:sodipodi="http://sodipodi.sourceforge.net/DTD/sodipodi-0.dtd" xmlns:inkscape="http://www.inkscape.org/namespaces/inkscape" width="48px" height="48px" id="svg2987" version="1.1" inkscape:version="0.48.3.1 r9886" sodipodi:docname="document-print.svg" inkscape:export-xdpi="90" inkscape:export-ydpi="90">
  <defs id="defs2989"/>
  <sodipodi:namedview id="base" pagecolor="#ffffff" bordercolor="#666666" borderopacity="1.0" inkscape:pageopacity="0.0" inkscape:pageshadow="2" inkscape:zoom="19.79899" inkscape:cx="26.072263" inkscape:cy="21.320544" inkscape:current-layer="layer1" showgrid="true" inkscape:grid-bbox="true" inkscape:document-units="px" inkscape:window-width="1920" inkscape:window-height="1023" inkscape:window-x="0" inkscape:window-y="25" inkscape:window-maximized="1">
    <inkscape:grid type="xygrid" id="grid2995" empspacing="6" visible="true" enabled="true" snapvisiblegridlinesonly="true"/>
  </sodipodi:namedview>
  <metadata id="metadata2992">
    <rdf:RDF>
      <cc:Work rdf:about="">
        <dc:format>image/svg+xml</dc:format>
        <dc:type rdf:resource="http://purl.org/dc/dcmitype/StillImage"/>
        <dc:title/>
      </cc:Work>
    </rdf:RDF>
  </metadata>
  <g id="layer1" inkscape:label="Layer 1" inkscape:groupmode="layer">
    <path style="fill:#4d4d4d;fill-opacity:1;stroke:none" d="M 12,3 C 10.338,3 9,4.338 9,6 l 0,36 c 0,1.662 1.338,3 3,3 l 24,0 c 1.662,0 3,-1.338 3,-3 L 39,6 C 39,4.338 37.662,3 36,3 z m 4,6 16,0 c 0.554,0 1,0.446 1,1 l 0,28 c 0,0.554 -0.446,1 -1,1 l -16,0 c -0.554,0 -1,-0.446 -1,-1 l 0,-28 c 0,-0.554 0.446,-1 1,-1 z" id="rect2986" inkscape:connector-curvature="0" sodipodi:nodetypes="ssssssssssssssssss"/>
    <path style="fill:#4d4d4d;fill-opacity:1;stroke:none" d="m 9,18 c -6,0 -6,4 -6,6 0,2 0,9 0,9 0,1.662 1.338,3 3,3 l 9,0 0,-3 18,0 0,3 9,0 c 1.662,0 3,-1.338 3,-3 0,0 0,-7 0,-9 0,-2 0,-6 -6,-6 l -6,0 c 0,2 -1,3 -3,3 l -12,0 c -2,0 -3,-1 -3,-3 z" id="rect3759" inkscape:connector-curvature="0" sodipodi:nodetypes="czssccccsszscsscc"/>
  </g>
</svg>
