<!-- Created with Inkscape (http://www.inkscape.org/) -->
<svg xmlns:dc="http://purl.org/dc/elements/1.1/" xmlns:cc="http://creativecommons.org/ns#" xmlns:rdf="http://www.w3.org/1999/02/22-rdf-syntax-ns#" xmlns:svg="http://www.w3.org/2000/svg" xmlns="http://www.w3.org/2000/svg" xmlns:sodipodi="http://sodipodi.sourceforge.net/DTD/sodipodi-0.dtd" xmlns:inkscape="http://www.inkscape.org/namespaces/inkscape" width="48px" height="48px" id="svg2987" version="1.1" inkscape:version="0.48.3.1 r9886" sodipodi:docname="document-print-preview.svg" inkscape:export-xdpi="90" inkscape:export-ydpi="90">
  <defs id="defs2989"/>
  <sodipodi:namedview id="base" pagecolor="#ffffff" bordercolor="#666666" borderopacity="1.0" inkscape:pageopacity="0.0" inkscape:pageshadow="2" inkscape:zoom="19.79899" inkscape:cx="32.324029" inkscape:cy="24.525411" inkscape:current-layer="layer1" showgrid="true" inkscape:grid-bbox="true" inkscape:document-units="px" inkscape:window-width="1920" inkscape:window-height="1023" inkscape:window-x="0" inkscape:window-y="25" inkscape:window-maximized="1">
    <inkscape:grid type="xygrid" id="grid2995" empspacing="6" visible="true" enabled="true" snapvisiblegridlinesonly="true"/>
  </sodipodi:namedview>
  <metadata id="metadata2992">
    <rdf:RDF>
      <cc:Work rdf:about="">
        <dc:format>image/svg+xml</dc:format>
        <dc:type rdf:resource="http://purl.org/dc/dcmitype/StillImage"/>
        <dc:title/>
      </cc:Work>
    </rdf:RDF>
  </metadata>
  <g id="layer1" inkscape:label="Layer 1" inkscape:groupmode="layer">
    <path style="fill:#4d4d4d;fill-opacity:1;stroke:none" d="M 25.5,39 z" id="path3851" inkscape:connector-curvature="0" sodipodi:nodetypes="cc"/>
    <path style="fill:#4d4d4d;fill-opacity:1;stroke:none" d="M 12,3 C 10.338,3 9,4.338 9,6 l 0,11 c 0,0 0,0 0,1 -6,0 -6,4 -6,6 0,2 0,9 0,9 0,1.662 1.338,3 3,3 l 3,0 0,6 c 0,1.662 1.338,3 3,3 l 24,0 c 0.153678,0 0.290164,-0.04042 0.4375,-0.0625 L 30.5,39 l -5,0 -9.5,0 c -0.554,0 -1,-0.446 -1,-1 l 0,-2 0,-2.03125 C 13.133561,31.653211 12,28.705654 12,25.5 c 0,-3.205654 1.133561,-6.153211 3,-8.46875 L 15,10 c 0,-0.554 0.446,-1 1,-1 l 16,0 c 0.554,0 1,0.446 1,1 l 0,4.28125 c 3.623015,2.420964 6,6.534239 6,11.21875 0,1.505212 -0.264184,2.929227 -0.71875,4.28125 l 5.5625,5.5625 C 44.540306,34.795324 45,33.959316 45,33 c 0,0 0,-7 0,-9 0,-2 0,-6 -6,-6 L 39,17 39,6 C 39,4.338 37.662,3 36,3 z" id="rect2986" inkscape:connector-curvature="0" sodipodi:nodetypes="sscczsscssscccssccscsssscsccszccsss"/>
    <g id="g2989" style="fill:#4d4d4d">
      <path sodipodi:nodetypes="cc" inkscape:connector-curvature="0" id="path2987" d="m 34,34 9,9" style="fill:#4d4d4d;stroke:#4d4d4d;stroke-width:6;stroke-linecap:round;stroke-linejoin:round;stroke-miterlimit:4;stroke-opacity:1;stroke-dasharray:none"/>
      <path inkscape:connector-curvature="0" id="path2985" d="M 25.5,15 C 19.70101,15 15,19.70101 15,25.5 15,31.29899 19.70101,36 25.5,36 31.29899,36 36,31.29899 36,25.5 36,19.70101 31.29899,15 25.5,15 z m 0,3 C 29.642136,18 33,21.357865 33,25.5 33,29.642135 29.642136,33 25.5,33 21.357864,33 18,29.642135 18,25.5 18,21.357865 21.357864,18 25.5,18 z" style="fill:#4d4d4d;fill-opacity:1;stroke:none"/>
    </g>
  </g>
</svg>
