<!-- Created with Inkscape (http://www.inkscape.org/) -->
<svg xmlns:dc="http://purl.org/dc/elements/1.1/" xmlns:cc="http://creativecommons.org/ns#" xmlns:rdf="http://www.w3.org/1999/02/22-rdf-syntax-ns#" xmlns:svg="http://www.w3.org/2000/svg" xmlns="http://www.w3.org/2000/svg" xmlns:sodipodi="http://sodipodi.sourceforge.net/DTD/sodipodi-0.dtd" xmlns:inkscape="http://www.inkscape.org/namespaces/inkscape" width="48px" height="48px" id="svg2987" version="1.1" inkscape:version="0.48.3.1 r9886" sodipodi:docname="help.svg" inkscape:export-xdpi="90" inkscape:export-ydpi="90">
  <defs id="defs2989"/>
  <sodipodi:namedview id="base" pagecolor="#ffffff" bordercolor="#666666" borderopacity="1.0" inkscape:pageopacity="0.0" inkscape:pageshadow="2" inkscape:zoom="9.899495" inkscape:cx="7.5767554" inkscape:cy="24.042201" inkscape:current-layer="layer1" showgrid="true" inkscape:grid-bbox="true" inkscape:document-units="px" inkscape:window-width="1920" inkscape:window-height="1022" inkscape:window-x="0" inkscape:window-y="26" inkscape:window-maximized="1" inkscape:snap-global="true">
    <inkscape:grid type="xygrid" id="grid2995" empspacing="6" visible="true" enabled="true" snapvisiblegridlinesonly="true"/>
  </sodipodi:namedview>
  <metadata id="metadata2992">
    <rdf:RDF>
      <cc:Work rdf:about="">
        <dc:format>image/svg+xml</dc:format>
        <dc:type rdf:resource="http://purl.org/dc/dcmitype/StillImage"/>
        <dc:title/>
      </cc:Work>
    </rdf:RDF>
  </metadata>
  <g id="layer1" inkscape:label="Layer 1" inkscape:groupmode="layer">
    <path style="fill:#4d4d4d;fill-opacity:1;stroke:none" d="M 24 3 C 12.40202 3 3 12.40202 3 24 C 3 35.59798 12.40202 45 24 45 C 35.59798 45 45 35.59798 45 24 C 45 12.40202 35.59798 3 24 3 z M 25 9.34375 C 28.216131 9.3437797 30.768211 10.049508 32.65625 11.46875 C 34.544249 12.888047 35.468728 14.739608 35.46875 17.03125 C 35.468728 18.346375 35.296853 19.515644 34.90625 20.53125 C 34.528624 21.533872 33.984354 22.382829 33.28125 23.125 C 32.578105 23.867203 31.739565 24.539077 30.75 25.125 C 29.773421 25.710951 28.643214 26.268242 27.40625 26.75 L 27.40625 31.1875 L 20.53125 31.1875 L 20.53125 24.59375 C 21.455721 24.346369 22.289053 24.104182 23.03125 23.84375 C 23.786448 23.583349 24.585926 23.148453 25.40625 22.5625 C 26.174466 22.041684 26.757799 21.440122 27.1875 20.75 C 27.630194 20.059915 27.874985 19.278666 27.875 18.40625 C 27.874985 17.104189 27.44009 16.171898 26.59375 15.625 C 25.760404 15.065128 24.585926 14.812524 23.0625 14.8125 C 22.124991 14.812524 21.059888 15.002628 19.875 15.40625 C 18.703119 15.809919 17.632808 16.330752 16.65625 16.96875 L 15.875 16.96875 L 15.875 11 C 16.70833 10.648466 17.986974 10.283883 19.71875 9.90625 C 21.450512 9.5156545 23.216136 9.3437797 25 9.34375 z M 20.0625 33.84375 L 27.96875 33.84375 L 27.96875 39 L 20.0625 39 L 20.0625 33.84375 z " id="path3007"/>
  </g>
</svg>
