<!-- Created with Inkscape (http://www.inkscape.org/) -->
<svg xmlns:dc="http://purl.org/dc/elements/1.1/" xmlns:cc="http://creativecommons.org/ns#" xmlns:rdf="http://www.w3.org/1999/02/22-rdf-syntax-ns#" xmlns:svg="http://www.w3.org/2000/svg" xmlns="http://www.w3.org/2000/svg" xmlns:sodipodi="http://sodipodi.sourceforge.net/DTD/sodipodi-0.dtd" xmlns:inkscape="http://www.inkscape.org/namespaces/inkscape" width="48px" height="48px" id="svg2987" version="1.1" inkscape:version="0.48.3.1 r9886" sodipodi:docname="star.svg" inkscape:export-xdpi="90" inkscape:export-ydpi="90">
  <defs id="defs2989"/>
  <sodipodi:namedview id="base" pagecolor="#ffffff" bordercolor="#666666" borderopacity="1.0" inkscape:pageopacity="0.0" inkscape:pageshadow="2" inkscape:zoom="14" inkscape:cx="11.927387" inkscape:cy="23.805331" inkscape:current-layer="layer1" showgrid="true" inkscape:grid-bbox="true" inkscape:document-units="px" inkscape:window-width="1920" inkscape:window-height="1022" inkscape:window-x="0" inkscape:window-y="26" inkscape:window-maximized="1">
    <inkscape:grid type="xygrid" id="grid2995" empspacing="8" visible="true" enabled="true" snapvisiblegridlinesonly="true"/>
  </sodipodi:namedview>
  <metadata id="metadata2992">
    <rdf:RDF>
      <cc:Work rdf:about="">
        <dc:format>image/svg+xml</dc:format>
        <dc:type rdf:resource="http://purl.org/dc/dcmitype/StillImage"/>
        <dc:title/>
      </cc:Work>
    </rdf:RDF>
  </metadata>
  <g id="layer1" inkscape:label="Layer 1" inkscape:groupmode="layer">
    <path sodipodi:type="star" style="fill:#4d4d4d;fill-opacity:1;stroke:none" id="path3768" sodipodi:sides="5" sodipodi:cx="24" sodipodi:cy="24" sodipodi:r1="22.967747" sodipodi:r2="12.170213" sodipodi:arg1="-1.5707963" sodipodi:arg2="-0.94247782" inkscape:flatsided="false" inkscape:rounded="0.21" inkscape:randomized="0" d="m 24,1.0322533 c 3.138462,-1e-7 4.614402,11.2770957 7.153471,13.1218377 2.53907,1.844742 13.720316,-0.23637 14.690154,2.748485 0.969839,2.984855 -9.299227,7.873371 -10.269065,10.858226 -0.969838,2.984855 4.464612,12.975754 1.925543,14.820496 C 34.961033,44.426039 27.138463,36.170213 24,36.170213 c -3.138462,0 -10.961033,8.255826 -13.500103,6.411084 C 7.9608277,40.736556 13.395278,30.745658 12.42544,27.760803 11.455602,24.775948 1.1865367,19.887431 2.1563749,16.902576 3.126213,13.917721 14.307459,15.998833 16.846528,14.154091 19.385598,12.309349 20.861538,1.0322533 24,1.0322533 z" inkscape:transform-center-y="-1.9677471" transform="translate(-6.1839607e-8,2.0588406)"/>
  </g>
</svg>
